Jump_normalized_Motion_pl03
version=1
nRows=8
nColumns=43
inDegrees=yes
endheader
time		pelvis_tilt		pelvis_list		pelvis_rotation		pelvis_tx		pelvis_ty		pelvis_tz		hip_flexion_r		hip_adduction_r		hip_rotation_r		knee_angle_r		ankle_angle_r		subtalar_angle_r		mtp_angle_r		hip_flexion_l		hip_adduction_l		hip_rotation_l		knee_angle_l		ankle_angle_l		subtalar_angle_l		mtp_angle_l		lumbar_extension		lumbar_bending		lumbar_rotation		neck_flexion		neck_lateral_bending		neck_rotation		arm_flex_r		arm_add_r		arm_rot_r		elbow_flex_r		pro_sup_r		wrist_flex_r		wrist_dev_r		hand_finger_flex_r		arm_flex_l		arm_add_l		arm_rot_l		elbow_flex_l		pro_sup_l		wrist_flex_l		wrist_dev_l		hand_finger_flex_l		
2.445000		-2.588459		-25.179300		87.266694		-0.014047		1.635198		1.623732		93.010866		-4.291814		13.447475		-134.950221		12.595797		11.975522		33.003971		87.873547		-9.620961		7.183711		-135.965515		31.713248		13.586869		7.558873		-43.404550		-6.771061		-0.209151		39.336855		7.583669		-4.042079		94.426247		-17.104852		19.127874		64.703436		98.873231		-4.228999		-2.362967		-11.021881		106.213884		-10.718623		24.222220		58.206244		106.436994		-10.058013		-4.257529		4.526555		
2.447576		-2.533255		-25.355445		87.305472		-0.014392		1.635416		1.620966		92.876796		-4.272621		13.536613		-134.953793		12.623302		11.992878		33.004431		87.619713		-9.626087		7.171939		-135.911240		31.695733		13.620163		7.586061		-43.043132		-6.712025		-0.119708		39.240825		7.633525		-4.057494		94.911880		-16.945524		19.133072		64.842230		98.818240		-4.224400		-2.452846		-11.101900		106.746353		-10.516042		24.256703		58.334014		106.427664		-10.059682		-4.361980		4.456825		
2.450152		-2.442805		-25.339998		87.502285		-0.014613		1.635726		1.618707		92.565488		-4.368768		13.521772		-135.004991		12.263662		12.060363		33.006720		87.299662		-9.613702		7.198018		-135.909197		31.812815		13.787254		7.775126		-42.895623		-6.657527		-0.193785		39.263376		7.784313		-4.149360		95.833317		-16.923990		19.650497		64.401390		98.530597		-4.027356		-2.600284		-11.533403		107.976843		-10.187128		24.949353		57.536689		106.468252		-9.871052		-4.581271		4.085327		
2.452727		-2.366436		-25.490322		87.575419		-0.014990		1.635811		1.615788		92.390459		-4.354442		13.608879		-135.029120		12.240872		12.079738		33.007012		87.013971		-9.649866		7.193037		-135.922341		31.793330		13.815815		7.801382		-42.489661		-6.606572		-0.188250		39.208754		7.817905		-4.161370		96.215314		-16.782976		19.685479		64.484189		98.479695		-4.003906		-2.659402		-11.597586		108.423815		-9.962833		25.017143		57.620981		106.466646		-9.862952		-4.658513		4.021253		
2.455303		-2.277115		-25.503075		87.748226		-0.015250		1.636380		1.613503		92.096434		-4.419279		13.612768		-135.023132		11.830347		12.135304		33.009000		86.688517		-9.628013		7.203827		-135.806713		31.897812		13.988332		8.008015		-42.390734		-6.525434		-0.195449		39.143789		8.039089		-4.247376		97.230014		-16.736531		20.124166		64.081090		98.137080		-3.763451		-2.788000		-12.032078		109.702762		-9.662778		25.656850		56.866228		106.500005		-9.728416		-4.870552		3.593152		
2.457879		-2.219780		-25.654755		87.859402		-0.015294		1.636624		1.610611		91.931353		-4.425871		13.643971		-135.039501		11.768338		12.162807		33.009579		86.439299		-9.713286		7.169795		-135.776665		31.893780		14.022737		8.057647		-42.058928		-6.499448		-0.195877		39.055502		8.088282		-4.258004		97.740291		-16.607615		20.147487		64.125933		98.042148		-3.719598		-2.849886		-12.141535		110.278911		-9.412551		25.746247		56.920022		106.484142		-9.734515		-4.973719		3.474641		
2.460455		-2.122133		-25.698255		88.031234		-0.015497		1.636968		1.608032		91.646247		-4.481637		13.642046		-135.056890		11.317841		12.270329		33.011263		86.122686		-9.758832		7.154626		-135.757271		31.970860		14.105811		8.214791		-41.840886		-6.436949		-0.263152		39.021270		8.232353		-4.299921		98.512804		-16.493392		20.436674		63.787358		97.774989		-3.506856		-2.870637		-12.441129		111.245616		-9.092476		26.213184		56.371448		106.469622		-9.683006		-5.086625		3.138749		
2.463030		-2.043347		-25.842855		88.124655		-0.015767		1.637278		1.605047		91.465843		-4.472604		13.715176		-135.049372		11.185096		12.318771		33.012041		85.807119		-9.777037		7.145344		-135.691275		31.970352		14.125186		8.270015		-41.492537		-6.365156		-0.232807		38.928211		8.299366		-4.310155		99.011078		-16.343728		20.500790		63.786469		97.670502		-3.433866		-2.904636		-12.547946		111.807499		-8.875047		26.351658		56.320475		106.437724		-9.685842		-5.165704		3.009956		
